<?xml version="1.0" encoding="utf-8"?>
<!-- Generator: Adobe Illustrator 16.0.0, SVG Export Plug-In . SVG Version: 6.00 Build 0)  -->
<!DOCTYPE svg PUBLIC "-//W3C//DTD SVG 1.1//EN" "http://www.w3.org/Graphics/SVG/1.1/DTD/svg11.dtd">
<svg version="1.1" id="圖層_1" xmlns="http://www.w3.org/2000/svg" xmlns:xlink="http://www.w3.org/1999/xlink" x="0px" y="0px"
	 width="100px" height="100px" viewBox="0 0 100 100" enable-background="new 0 0 100 100" xml:space="preserve">
<g>
	<path fill="#11928A" d="M77.456,100H22.544C10.093,100,0,89.906,0,77.456V22.544C0,10.093,10.093,0,22.544,0h54.912
		C89.906,0,100,10.093,100,22.544v54.912C100,89.906,89.906,100,77.456,100"/>
	<path fill="#FFFFFF" d="M83.341,45.264c0-14.919-14.956-27.056-33.341-27.056c-18.383,0-33.34,12.137-33.34,27.056
		c0,13.374,11.861,24.575,27.883,26.692c1.085,0.235,2.563,0.717,2.937,1.645c0.336,0.843,0.22,2.163,0.108,3.015
		c0,0-0.391,2.353-0.476,2.854c-0.146,0.842-0.67,3.297,2.888,1.797c3.559-1.499,19.2-11.306,26.195-19.355h-0.002
		C81.025,56.611,83.341,51.234,83.341,45.264"/>
	<path fill="#11928A" d="M72.238,53.903h-9.354h-0.012c-0.352,0-0.637-0.284-0.637-0.637v-0.011l0,0V38.731V38.73v-0.014
		c0-0.352,0.285-0.636,0.637-0.636h0.012h9.354c0.351,0,0.637,0.286,0.637,0.636v2.364c0,0.352-0.285,0.637-0.637,0.637h-6.365
		v2.455h6.365c0.351,0,0.637,0.287,0.637,0.637v2.365c0,0.352-0.285,0.637-0.637,0.637h-6.365v2.455h6.365
		c0.351,0,0.637,0.287,0.637,0.637v2.364C72.875,53.619,72.59,53.903,72.238,53.903"/>
	<path fill="#11928A" d="M37.59,53.903c0.352,0,0.637-0.284,0.637-0.637v-2.364c0-0.35-0.287-0.637-0.637-0.637h-6.366V38.716
		c0-0.35-0.287-0.636-0.637-0.636h-2.365c-0.352,0-0.636,0.285-0.636,0.636v14.54l0,0v0.011c0,0.353,0.285,0.637,0.636,0.637h0.013
		H37.59z"/>
	<path fill="#11928A" d="M43.229,38.08h-2.364c-0.352,0-0.636,0.285-0.636,0.637v14.55c0,0.352,0.285,0.637,0.636,0.637h2.364
		c0.352,0,0.637-0.285,0.637-0.637v-14.55C43.866,38.365,43.581,38.08,43.229,38.08"/>
	<path fill="#11928A" d="M59.325,38.08h-2.364c-0.352,0-0.637,0.285-0.637,0.637v8.642l-6.657-8.99
		c-0.016-0.023-0.032-0.045-0.051-0.066c-0.001-0.001-0.003-0.003-0.004-0.004c-0.013-0.014-0.025-0.027-0.039-0.04l-0.012-0.011
		c-0.011-0.01-0.022-0.02-0.034-0.029l-0.018-0.013c-0.01-0.007-0.021-0.015-0.033-0.023c-0.007-0.004-0.013-0.008-0.02-0.012
		c-0.012-0.007-0.023-0.013-0.035-0.019c-0.007-0.003-0.014-0.007-0.021-0.01c-0.012-0.005-0.024-0.011-0.037-0.016
		c-0.007-0.002-0.014-0.005-0.021-0.008c-0.013-0.004-0.025-0.009-0.039-0.012c-0.007-0.002-0.015-0.004-0.022-0.006
		c-0.013-0.003-0.025-0.006-0.038-0.008c-0.009-0.001-0.018-0.003-0.026-0.004c-0.012-0.001-0.023-0.003-0.035-0.004
		c-0.011-0.001-0.021-0.001-0.033-0.002c-0.008,0-0.015-0.001-0.022-0.001h-2.351c-0.352,0-0.637,0.285-0.637,0.637v14.55
		c0,0.352,0.285,0.637,0.637,0.637h2.365c0.352,0,0.636-0.285,0.636-0.637v-8.639l6.666,9.001c0.046,0.064,0.102,0.118,0.164,0.16
		c0.003,0.002,0.005,0.004,0.007,0.005c0.014,0.009,0.027,0.018,0.041,0.024c0.006,0.004,0.012,0.007,0.018,0.011
		c0.011,0.005,0.021,0.01,0.031,0.015s0.021,0.009,0.031,0.014c0.007,0.003,0.014,0.005,0.021,0.007
		c0.014,0.006,0.028,0.01,0.044,0.015c0.003,0.001,0.006,0.002,0.009,0.002c0.054,0.014,0.108,0.022,0.166,0.022h2.352
		c0.352,0,0.637-0.285,0.637-0.637v-14.55C59.962,38.365,59.677,38.08,59.325,38.08"/>
</g>
</svg>
