<svg id="圖層_1" data-name="圖層 1" xmlns="http://www.w3.org/2000/svg" viewBox="0 0 46 46"><circle cx="23" cy="23" r="10"/><rect x="21" width="4" height="10" rx="2"/><rect x="21" y="36" width="4" height="10" rx="2"/><rect x="41" y="20" width="4" height="10" rx="2" transform="translate(16 66) rotate(-90)"/><rect x="5" y="20" width="4" height="10" rx="2" transform="translate(-20 30) rotate(-90)"/><rect x="35.7" y="7.3" width="4" height="10" rx="2" transform="translate(53.66 45.66) rotate(-135)"/><rect x="10.3" y="7.3" width="4" height="10" rx="2" transform="translate(-7.09 10.3) rotate(-45)"/><rect x="10.3" y="32.7" width="4" height="10" rx="2" transform="translate(-7.66 71.06) rotate(-135)"/><rect x="35.7" y="32.7" width="4" height="10" rx="2" transform="translate(-17.62 35.7) rotate(-45)"/></svg>