<?xml version="1.0" encoding="utf-8"?>
<!-- Generator: Adobe Illustrator 23.0.2, SVG Export Plug-In . SVG Version: 6.00 Build 0)  -->
<svg version="1.1" id="圖層_1" xmlns="http://www.w3.org/2000/svg" xmlns:xlink="http://www.w3.org/1999/xlink" x="0px" y="0px"
	 viewBox="0 0 262 262" style="enable-background:new 0 0 262 262;" xml:space="preserve">
<style type="text/css">
	.st0{fill:#222222;}
</style>
<path class="st0" d="M131,0C58.7,0,0,58.6,0,131s58.7,131,131,131s131-58.7,131-131S203.3,0,131,0z M93.7,157.3
	c0,14.2-4,26-12.1,35.2c-8.1,9.3-18.3,13.9-30.7,13.9c-3,0-6.5-0.5-10.4-1.6c-1.4-0.4-2.4-1.7-2.4-3.1v-33.5c0-2,1.9-3.5,3.9-3.2
	c0.6,0.1,1.2,0.1,1.8,0.1c5.5,0,8.2-4.4,8.2-13.2V66.2c0-1.8,1.4-3.2,3.2-3.2h35.2c1.8,0,3.2,1.4,3.2,3.2V157.3z M219.5,199.5
	c0,1.9-1.6,3.5-3.5,3.5h-34.7c-1.9,0-3.5-1.6-3.5-3.5v-46.5c0-1.6-1.3-2.9-2.9-2.9h-13c-1.6,0.3-2.7,1.7-2.7,3.4v46.1
	c0,1.9-1.6,3.5-3.5,3.5H121c-1.9,0-3.5-1.6-3.5-3.5v-133c0-1.9,1.6-3.5,3.5-3.5h34.7c1.9,0,3.5,1.6,3.5,3.5v43.1
	c0,1.9,1.5,3.4,3.4,3.5h12.3c1.7,0,3-1.4,3-3V66.4c0-1.9,1.6-3.5,3.5-3.5H216c1.9,0,3.5,1.6,3.5,3.5V199.5z"/>
</svg>
